<?xml version="1.0" encoding="UTF-8"?>
<svg width="153px" height="149px" viewBox="0 0 153 149" version="1.1" xmlns="http://www.w3.org/2000/svg" xmlns:xlink="http://www.w3.org/1999/xlink">
    <title>WaxBody</title>
    <g id="Symbols" stroke="none" stroke-width="1" fill="none" fill-rule="evenodd">
        <g id="WaxCan-Icon" transform="translate(-3, -64)" fill="#FFFFFF">
            <g id="Wax-body" transform="translate(3.9427, 65.6281)">
                <path d="M-0.0133333333,-1.00261975 C3.75539615,1.73300414 27.9888459,11.620603 76.0573248,11.620603 C124.125804,11.620603 148.278768,1.57455416 152.056177,-0.950235964 L152.055732,0.56087978 C152.055695,0.654831271 152.055656,0.752656304 152.055614,0.85435488 L152.054815,2.67034915 C152.05475,2.81078315 152.054682,2.95509069 152.054613,3.10327176 L152.053668,5.06737472 C152.05358,5.24654413 152.053489,5.42958709 152.053397,5.61650359 L152.052813,6.78448508 C152.052711,6.98689574 152.052606,7.19317995 152.0525,7.4033377 L152.051833,8.7107667 C152.051717,8.93641861 152.051599,9.16594407 152.051478,9.39934307 L152.050727,10.8462196 C152.041385,28.7665277 152.020032,66.7672772 151.986667,124.848468 L151.955916,124.8481 C151.976371,125.05487 151.986667,125.262365 151.986667,125.470546 C151.986667,137.438434 105.632057,146.584688 75.9866667,146.584688 C46.3412766,146.584688 -0.0133333333,137.438434 -0.0133333333,125.470546 C-0.0133333333,125.262365 -0.00303748235,125.05487 0.0174169538,124.8481 L-0.0133333333,124.848468 L-0.0133333333,-1.00261975 Z" id="WaxBody"></path>
            </g>
        </g>
    </g>
</svg>